<svg width="364" height="44" viewBox="0 0 364 44" fill="none" xmlns="http://www.w3.org/2000/svg">
<path d="M0.2 43V0.999997H19.4C23.24 0.999997 26.54 1.62 29.3 2.86C32.1 4.1 34.26 5.9 35.78 8.26C37.3 10.58 38.06 13.34 38.06 16.54C38.06 19.7 37.3 22.44 35.78 24.76C34.26 27.04 32.1 28.8 29.3 30.04C26.54 31.24 23.24 31.84 19.4 31.84H6.8L12.08 26.86V43H0.2ZM26.18 43L15.74 27.7H28.4L38.9 43H26.18ZM12.08 28.12L6.8 22.66H18.68C21.16 22.66 23 22.12 24.2 21.04C25.44 19.96 26.06 18.46 26.06 16.54C26.06 14.58 25.44 13.06 24.2 11.98C23 10.9 21.16 10.36 18.68 10.36H6.8L12.08 4.9V28.12ZM55.5341 17.26H75.0341V26.14H55.5341V17.26ZM56.3741 33.82H78.3341V43H44.6141V0.999997H77.5541V10.18H56.3741V33.82ZM93.8666 43V10.42H80.9666V0.999997H118.587V10.42H105.747V43H93.8666ZM123.013 43V0.999997H142.213C146.053 0.999997 149.353 1.62 152.113 2.86C154.913 4.1 157.073 5.9 158.593 8.26C160.113 10.58 160.873 13.34 160.873 16.54C160.873 19.7 160.113 22.44 158.593 24.76C157.073 27.04 154.913 28.8 152.113 30.04C149.353 31.24 146.053 31.84 142.213 31.84H129.613L134.893 26.86V43H123.013ZM148.993 43L138.553 27.7H151.213L161.713 43H148.993ZM134.893 28.12L129.613 22.66H141.493C143.973 22.66 145.813 22.12 147.013 21.04C148.253 19.96 148.873 18.46 148.873 16.54C148.873 14.58 148.253 13.06 147.013 11.98C145.813 10.9 143.973 10.36 141.493 10.36H129.613L134.893 4.9V28.12ZM188.607 43.84C185.247 43.84 182.147 43.3 179.307 42.22C176.467 41.14 173.987 39.62 171.867 37.66C169.787 35.66 168.167 33.34 167.007 30.7C165.847 28.06 165.267 25.16 165.267 22C165.267 18.84 165.847 15.94 167.007 13.3C168.167 10.66 169.787 8.36 171.867 6.4C173.987 4.4 176.467 2.86 179.307 1.78C182.147 0.699997 185.247 0.159997 188.607 0.159997C192.007 0.159997 195.107 0.699997 197.907 1.78C200.747 2.86 203.207 4.4 205.287 6.4C207.367 8.36 208.987 10.66 210.147 13.3C211.347 15.94 211.947 18.84 211.947 22C211.947 25.16 211.347 28.08 210.147 30.76C208.987 33.4 207.367 35.7 205.287 37.66C203.207 39.62 200.747 41.14 197.907 42.22C195.107 43.3 192.007 43.84 188.607 43.84ZM188.607 34C190.207 34 191.687 33.72 193.047 33.16C194.447 32.6 195.647 31.8 196.647 30.76C197.687 29.68 198.487 28.4 199.047 26.92C199.647 25.44 199.947 23.8 199.947 22C199.947 20.16 199.647 18.52 199.047 17.08C198.487 15.6 197.687 14.34 196.647 13.3C195.647 12.22 194.447 11.4 193.047 10.84C191.687 10.28 190.207 10 188.607 10C187.007 10 185.507 10.28 184.107 10.84C182.747 11.4 181.547 12.22 180.507 13.3C179.507 14.34 178.707 15.6 178.107 17.08C177.547 18.52 177.267 20.16 177.267 22C177.267 23.8 177.547 25.44 178.107 26.92C178.707 28.4 179.507 29.68 180.507 30.76C181.547 31.8 182.747 32.6 184.107 33.16C185.507 33.72 187.007 34 188.607 34ZM218.169 43V0.999997H239.649C245.169 0.999997 249.289 2.02 252.009 4.06C254.729 6.06 256.089 8.7 256.089 11.98C256.089 14.14 255.509 16.04 254.349 17.68C253.229 19.28 251.629 20.56 249.549 21.52C247.509 22.44 245.069 22.9 242.229 22.9L243.429 20.02C246.389 20.02 248.969 20.48 251.169 21.4C253.369 22.28 255.069 23.58 256.269 25.3C257.509 26.98 258.129 29.04 258.129 31.48C258.129 35.12 256.649 37.96 253.689 40C250.769 42 246.489 43 240.849 43H218.169ZM229.929 34.42H239.889C241.929 34.42 243.469 34.08 244.509 33.4C245.589 32.68 246.129 31.6 246.129 30.16C246.129 28.72 245.589 27.66 244.509 26.98C243.469 26.26 241.929 25.9 239.889 25.9H229.089V17.68H238.089C240.089 17.68 241.589 17.34 242.589 16.66C243.589 15.98 244.089 14.96 244.089 13.6C244.089 12.24 243.589 11.24 242.589 10.6C241.589 9.92 240.089 9.58 238.089 9.58H229.929V34.42ZM264.282 43V0.999997H276.162V43H264.282ZM295.234 33.7L294.574 20.38L312.634 0.999997H325.714L307.714 20.5L301.114 27.4L295.234 33.7ZM284.614 43V0.999997H296.374V43H284.614ZM312.814 43L299.134 25.66L306.874 17.38L326.614 43H312.814ZM340.651 17.26H360.151V26.14H340.651V17.26ZM341.491 33.82H363.451V43H329.731V0.999997H362.671V10.18H341.491V33.82Z" fill="#212E5A"/>
</svg>
