<svg width="76" height="51" viewBox="0 0 76 51" fill="none" xmlns="http://www.w3.org/2000/svg">
<path d="M57.57 19L52.1867 4.18C51.741 2.958 50.9313 1.90206 49.8668 1.15462C48.8022 0.407177 47.5341 0.00418515 46.2333 0H38V6.33333H46.2333L50.8567 19H35.625L34.485 15.8333H38V9.5H22.1667V15.8333H27.7083L33.4717 31.6667H31.35C29.9567 24.605 24.035 19.38 16.625 19.0317C7.75833 18.5883 0 25.9667 0 34.8333C0 43.7 6.96667 50.6667 15.8333 50.6667C23.6233 50.6667 29.925 45.315 31.35 38H44.65C46.0433 45.0617 51.965 50.2867 59.375 50.635C68.2417 51.0467 76 43.7 76 34.8017C76 25.935 69.0333 18.9683 60.1667 18.9683H57.57V19ZM24.7633 38C23.4967 41.705 20.045 44.3333 15.8333 44.3333C10.5133 44.3333 6.33333 40.1533 6.33333 34.8333C6.33333 29.5133 10.5133 25.3333 15.8333 25.3333C20.045 25.3333 23.4967 27.9617 24.7633 31.6667H15.8333V38H24.7633ZM44.65 31.6667H40.2167L37.905 25.3333H47.5C46.1067 27.17 45.0933 29.2917 44.65 31.6667V31.6667ZM60.1667 44.3333C54.8467 44.3333 50.6667 40.1533 50.6667 34.8333C50.6667 31.8883 51.965 29.355 53.9917 27.6133L57.0317 35.9733L62.985 33.82L59.9133 25.365C60.0083 25.365 60.1033 25.3333 60.1983 25.3333C65.5183 25.3333 69.6983 29.5133 69.6983 34.8333C69.6983 40.1533 65.4867 44.3333 60.1667 44.3333Z" fill="black"/>
</svg>
